<?xml version="1.0" encoding="UTF-8"?>
<!-- Generator: Blender, SVG Export for Grease Pencil - v2.0 -->
<!DOCTYPE svg PUBLIC "-//W3C//DTD SVG 1.1//EN" "http://www.w3.org/Graphics/SVG/1.1/DTD/svg11.dtd">
<svg version="1.0" x="0px" y="0px" xmlns="http://www.w3.org/2000/svg" width="16.000000px" height="16.000000px" viewBox="0 0 16.000000 16.000000">
	<g id="blender_frame_0">
		<g id="blender_object_DampedSpringJoint2D.svg">
			<!--Layer: Layer_001-->
			<g id="Layer_001">
				<polyline points="5.295060,9.074636 5.922013,17.477295 7.934128,17.834496 7.307175,9.431839 5.295060,9.074636" fill="#8DA5F2" stroke="none" fill-opacity="1" />
			</g>
		</g>
	</g>
	<g id="blender_frame_0">
		<g id="blender_object_DampedSpringJoint2D.svg.001">
			<!--Layer: Layer_001-->
			<g id="Layer_001">
				<polyline points="8.516779,9.074636 9.143733,17.477295 11.155847,17.834496 10.528895,9.431839 8.516779,9.074636" fill="#8DA5F2" stroke="none" fill-opacity="1" />
			</g>
		</g>
	</g>
	<g id="blender_frame_0">
		<g id="blender_object_Circle.001">
			<!--Layer: Lines-->
			<g id="Lines">
				<polygon points="8.277630,0.774216 8.895198,0.819229 9.504838,0.936541 10.102093,1.101801 10.679604,1.326710 11.233846,1.603559 11.756550,1.936921 12.246076,2.317144 12.693499,2.746744 13.099120,3.215816 13.453711,3.725045 13.759517,4.264751 14.007372,4.833783 14.201393,5.423071 14.332833,6.029694 14.407487,6.646798 14.417289,7.272713 14.369374,7.906767 14.256503,8.554026 14.087044,9.214432 13.855291,9.885324 13.570837,10.556662 13.229697,11.218792 12.842028,11.860898 12.405638,12.468912 11.930769,13.033701 11.417077,13.537535 10.874457,13.974110 10.304397,14.322769 9.715885,14.586264 9.111815,14.754200 8.499770,14.844335 7.883957,14.856726 7.270813,14.804863 6.666379,14.674779 6.075925,14.466502 5.506752,14.164248 4.962083,13.779621 4.449821,13.310087 3.971071,12.778000 3.534244,12.187574 3.138630,11.558804 2.792934,10.898861 2.494685,10.223801 2.252578,9.542669 2.062481,8.866676 1.932785,8.204931 1.857959,7.559462 1.846002,6.929726 1.890132,6.310617 1.997362,5.703623 2.159573,5.110240 2.382443,4.536649 2.656944,3.986004 2.987264,3.466311 3.363879,2.979129 3.789330,2.533209 4.253956,2.128243 4.758539,1.773356 5.293640,1.466368 5.858239,1.216408 6.443474,1.019494 7.046068,0.881801 7.659158,0.792092" fill="#8CA4F2" stroke="none" fill-opacity="1" />
			</g>
		</g>
	</g>
	<g id="blender_frame_0">
		<g id="blender_object_Circle">
			<!--Layer: Lines-->
			<g id="Lines">
				<polygon points="8.027609,10.134306 8.554037,10.082458 9.060235,9.928904 9.526749,9.679546 9.935652,9.343967 10.271231,8.935064 10.520587,8.468552 10.674140,7.962354 10.725989,7.435925 10.674141,6.909497 10.520587,6.403298 10.271231,5.936786 9.935652,5.527883 9.526749,5.192304 9.060235,4.942946 8.554037,4.789393 8.027609,4.737545 7.501181,4.789393 6.994984,4.942946 6.528469,5.192304 6.119566,5.527883 5.783987,5.936786 5.534630,6.403298 5.381077,6.909497 5.329228,7.435925 5.381077,7.962354 5.534631,8.468552 5.783988,8.935064 6.119566,9.343967 6.528469,9.679546 6.994984,9.928904 7.501181,10.082458" fill="#739BF0" stroke="none" fill-opacity="1" />
			</g>
		</g>
	</g>
</svg>
