<?xml version="1.0" encoding="UTF-8"?>
<!-- Generator: Blender, SVG Export for Grease Pencil - v2.0 -->
<!DOCTYPE svg PUBLIC "-//W3C//DTD SVG 1.1//EN" "http://www.w3.org/Graphics/SVG/1.1/DTD/svg11.dtd">
<svg version="1.0" x="0px" y="0px" xmlns="http://www.w3.org/2000/svg" width="18.000000px" height="18.000000px" viewBox="0 0 18.000000 18.000000">
	<clipPath id="clip-path0">
		<rect x="0" y="0" width="18" height="18" fill="none" />
	</clipPath>
	<g id="blender_frame_0" clip-path="url(#clip-path0)">
		<g id="blender_object_PulleyJoint2D.svg">
			<!--Layer: blender_frame_0-->
			<g id="blender_frame_0">
				<polyline points="13.455917,7.242895 13.532094,17.773117 15.720178,17.803482 15.640921,7.878739 13.455917,7.242895" fill="#8DA5F1" stroke="none" fill-opacity="1" />
				<polyline points="1.996023,8.139643 2.410836,17.639000 4.613975,17.639000 4.199164,8.598760 1.996023,8.139643" fill="#8DA5F1" stroke="none" fill-opacity="1" />
				<polygon points="8.972923,0.113459 9.653015,0.163029 10.324375,0.292217 10.982097,0.474209 11.618076,0.721889 12.228431,1.026766 12.804053,1.393877 13.343140,1.812597 13.835860,2.285688 14.282548,2.802248 14.673036,3.363032 15.009803,3.957381 15.282754,4.584021 15.496418,5.232969 15.641163,5.901008 15.723374,6.580588 15.734169,7.269872 15.681404,7.968118 15.557106,8.680906 15.370489,9.408173 15.115275,10.146986 14.802021,10.886292 14.426345,11.615456 13.999427,12.322571 13.518857,12.992141 12.995913,13.614109 12.430213,14.168953 11.832659,14.649727 11.204883,15.033685 10.556788,15.323855 9.891563,15.508794 9.217553,15.608055 8.539394,15.621700 7.864175,15.564586 7.198547,15.421333 6.548314,15.191969 5.921518,14.859116 5.321705,14.435548 4.757581,13.918477 4.230362,13.332520 3.749310,12.682320 3.313644,11.989891 2.932949,11.263136 2.604505,10.519732 2.337887,9.769640 2.128543,9.025210 1.985718,8.296470 1.903316,7.585650 1.890148,6.892159 1.938747,6.210372 2.056833,5.541924 2.235466,4.888468 2.480900,4.256805 2.783191,3.650412 3.146953,3.078105 3.561697,2.541600 4.030222,2.050535 4.541888,1.604568 5.097556,1.213753 5.686831,0.875685 6.308591,0.600418 6.953074,0.383570 7.616677,0.231936 8.291837,0.133146 8.972923,0.113459" fill="#8CA4F1" stroke="none" fill-opacity="1" />
				<polygon points="8.697590,10.421177 9.277314,10.364079 9.834760,10.194978 10.348505,9.920376 10.798805,9.550822 11.168359,9.100522 11.442960,8.586779 11.612060,8.029333 11.669158,7.449608 11.612061,6.869883 11.442960,6.312436 11.168359,5.798694 10.798805,5.348393 10.348505,4.978840 9.834760,4.704236 9.277314,4.535136 8.697590,4.478040 8.117866,4.535136 7.560421,4.704236 7.046676,4.978840 6.596374,5.348393 6.226821,5.798694 5.952219,6.312436 5.783120,6.869883 5.726021,7.449608 5.783120,8.029333 5.952219,8.586779 6.226821,9.100522 6.596374,9.550822 7.046675,9.920376 7.560421,10.194978 8.117866,10.364079 8.697590,10.421177" fill="#739BEF" stroke="none" fill-opacity="1" />
			</g>
		</g>
	</g>
</svg>
